<svg width="150" height="140" viewBox="0 0 150 140" fill="none" xmlns="http://www.w3.org/2000/svg">
<path d="M144.938 51.7673C139.465 40.3374 133.081 29.3615 125.851 18.9382L123.519 15.6102C120.648 11.4735 116.883 8.02327 112.501 5.50982C108.118 2.99636 103.228 1.48655 98.1836 1.088L94.088 0.759273C81.3822 -0.253091 68.6178 -0.253091 55.912 0.759273L51.8164 1.088C46.7715 1.48945 41.882 2.99927 37.4993 5.50982C33.1165 8.02036 29.352 11.4705 26.4809 15.6102L24.1489 18.9673C16.9186 29.3876 10.535 40.3665 5.0624 51.7964L3.29876 55.4764C1.12791 60.0145 0 64.9745 0 69.9985C0 75.0225 1.12791 79.9825 3.29876 84.5207L5.0624 88.2007C10.535 99.6305 16.9186 110.607 24.1489 121.03L26.4809 124.39C29.352 128.527 33.1165 131.977 37.4993 134.49C41.882 137.004 46.7715 138.513 51.8164 138.912L55.912 139.241C68.6178 140.253 81.3822 140.253 94.088 139.241L98.1836 138.912C103.231 138.508 108.124 136.989 112.507 134.47C116.889 131.951 120.651 128.492 123.519 124.346L125.851 120.986C133.081 110.566 139.465 99.5869 144.938 88.1571L146.701 84.4771C148.872 79.9389 150 74.9789 150 69.9549C150 64.9309 148.872 59.9709 146.701 55.4327L144.938 51.7673Z" fill="white"/>
</svg>
